<svg width="38" height="38" viewBox="0 0 38 38" fill="currentColor" xmlns="http://www.w3.org/2000/svg">
<path d="M2.67036 0.907224C2.03773 1.07087 0.86495 1.5721 0.839822 2.8434C0.814694 4.1147 0.819707 19.3123 0.819707 19.3123C0.803999 32.1309 0.872551 35.5799 0.88652 36.1011C0.900489 36.6223 1.29141 36.9803 1.84316 37.0894C2.3949 37.1986 2.87741 37.1775 4.70198 37.1775H7.26817L7.28808 32.7918C7.28808 32.7918 7.33374 29.6415 7.30791 28.406C7.28207 27.1705 8.27716 26.5443 9.15593 26.5443C10.0347 26.5443 11.7858 26.5443 11.7858 26.5443C11.7858 26.5443 12.8067 26.5443 14.4157 26.5443C16.0246 26.5443 16.2379 27.5285 16.2987 28.7254C16.3595 29.9222 16.3703 30.7301 16.3703 33.1416V37.1775H19.5695H22.7685L22.7502 21.2277C22.7502 21.2277 22.7422 6.15541 22.7318 5.27793C22.7214 4.40045 21.7983 3.86841 21.3129 3.62918C20.8747 3.41329 20.9409 3.42468 13.8471 2.34138C11.1106 1.9235 7.72528 1.4063 6.32426 1.19214C3.67576 0.787216 3.30299 0.743581 2.67036 0.907224ZM9.66193 7.14844C10.0195 7.31936 10.21 7.6322 10.2426 8.10164C10.2654 8.4303 10.2411 8.54336 10.1038 8.74686C9.77623 9.23234 9.59448 9.28497 8.15331 9.31117C7.37301 9.32542 6.7535 9.30401 6.5795 9.25682C6.19803 9.15336 5.81158 8.7228 5.74526 8.3274C5.68143 7.94669 5.92267 7.42527 6.27003 7.19341C6.50075 7.03939 6.5763 7.03223 7.96516 7.03223C9.15906 7.03223 9.4622 7.053 9.66193 7.14844ZM17.2951 7.19334C17.6352 7.42655 17.8026 7.6882 17.8431 8.04972C17.8895 8.4646 17.6786 8.89129 17.3143 9.11942C17.055 9.28189 16.9945 9.28776 15.5885 9.28776C14.1825 9.28776 14.1219 9.28189 13.8626 9.11942C13.4984 8.89129 13.2875 8.4646 13.3339 8.04972C13.3743 7.6882 13.5417 7.42655 13.8819 7.19334C14.1069 7.03911 14.1794 7.03223 15.5885 7.03223C16.9976 7.03223 17.0701 7.03911 17.2951 7.19334ZM9.66193 11.7311C10.0195 11.902 10.21 12.2149 10.2426 12.6843C10.2654 13.013 10.2411 13.126 10.1038 13.3295C9.77623 13.815 9.59448 13.8676 8.15331 13.8938C7.37301 13.9081 6.7535 13.8867 6.5795 13.8395C6.19803 13.736 5.81158 13.3055 5.74526 12.9101C5.68143 12.5293 5.92267 12.0079 6.27003 11.7761C6.50075 11.6221 6.5763 11.6149 7.96516 11.6149C9.15906 11.6149 9.4622 11.6357 9.66193 11.7311ZM17.2951 11.776C17.6352 12.0092 17.8026 12.2709 17.8431 12.6324C17.8895 13.0473 17.6786 13.4739 17.3143 13.7021C17.055 13.8645 16.9945 13.8704 15.5885 13.8704C14.1825 13.8704 14.1219 13.8645 13.8626 13.7021C13.4984 13.4739 13.2875 13.0473 13.3339 12.6324C13.3743 12.2709 13.5417 12.0092 13.8819 11.776C14.1069 11.6218 14.1794 11.6149 15.5885 11.6149C16.9976 11.6149 17.0701 11.6218 17.2951 11.776ZM24.331 26.0094V37.1818L29.7507 37.1618C29.7507 37.1618 34.1502 37.1958 35.1704 37.1417C36.1906 37.0877 37.1147 36.5865 37.1606 35.1368C37.2065 33.6872 37.1606 27.0814 37.1606 27.0814V19.0259L36.9757 18.6288C36.6468 17.9226 36.0679 17.3932 35.3793 17.1691C35.0406 17.0589 24.6003 14.8374 24.4199 14.8372C24.3492 14.8371 24.331 17.1192 24.331 26.0094ZM9.66193 16.3138C10.0195 16.4847 10.21 16.7975 10.2426 17.267C10.2654 17.5956 10.2411 17.7087 10.1038 17.9122C9.77623 18.3977 9.59448 18.4503 8.15331 18.4765C7.37301 18.4907 6.7535 18.4693 6.5795 18.4221C6.19803 18.3187 5.81158 17.8881 5.74526 17.4927C5.68143 17.112 5.92267 16.5906 6.27003 16.3587C6.50075 16.2047 6.5763 16.1975 7.96516 16.1975C9.15906 16.1975 9.4622 16.2183 9.66193 16.3138ZM17.2951 16.3587C17.6352 16.5919 17.8026 16.8535 17.8431 17.215C17.8895 17.6299 17.6786 18.0566 17.3143 18.2847C17.055 18.4472 16.9945 18.4531 15.5885 18.4531C14.1825 18.4531 14.1219 18.4472 13.8626 18.2847C13.4984 18.0566 13.2875 17.6299 13.3339 17.215C13.3743 16.8535 13.5417 16.5919 13.8819 16.3587C14.1069 16.2044 14.1794 16.1975 15.5885 16.1975C16.9976 16.1975 17.0701 16.2044 17.2951 16.3587ZM9.66193 20.8964C10.0195 21.0673 10.21 21.3802 10.2426 21.8496C10.2654 22.1783 10.2841 22.2513 10.1051 22.5521C9.92606 22.8529 9.59448 23.0329 8.15331 23.0591C7.37301 23.0734 6.7535 23.052 6.5795 23.0048C6.19803 22.9013 5.81158 22.4708 5.74526 22.0754C5.68143 21.6947 5.92267 21.1732 6.27003 20.9414C6.50075 20.7874 6.5763 20.7802 7.96516 20.7802C9.15906 20.7802 9.4622 20.801 9.66193 20.8964ZM17.2951 20.9413C17.6352 21.1745 17.8026 21.4362 17.8431 21.7977C17.8895 22.2126 17.6786 22.6393 17.3143 22.8674C17.055 23.0299 16.9945 23.0357 15.5885 23.0357C14.1825 23.0357 14.1219 23.0299 13.8626 22.8674C13.4984 22.6393 13.2875 22.2126 13.3339 21.7977C13.3743 21.4362 13.5417 21.1745 13.8819 20.9413C14.1069 20.7871 14.1794 20.7802 15.5885 20.7802C16.9976 20.7802 17.0701 20.7871 17.2951 20.9413ZM32.1225 21.3217C32.4953 21.6024 32.6116 21.8311 32.6116 22.2839C32.6116 22.7366 32.5832 22.9874 32.2103 23.2681C32.0307 23.4034 31.8094 23.3957 30.5276 23.4168C28.9449 23.4429 28.7105 23.4011 28.3926 23.0364C28.0208 22.6098 28.0087 21.9859 28.364 21.5605C28.6944 21.1649 28.8344 21.1379 30.4565 21.1568C31.8154 21.1727 31.9412 21.1852 32.1225 21.3217ZM32.1225 25.9043C32.4953 26.1851 32.6116 26.4138 32.6116 26.8665C32.6116 27.3192 32.4953 27.548 32.1225 27.8288C31.9428 27.9641 31.8094 27.9783 30.5276 27.9995C28.9449 28.0256 28.7105 27.9838 28.3926 27.619C28.0208 27.1925 28.0087 26.5685 28.364 26.1431C28.6944 25.7475 28.8344 25.7205 30.4565 25.7395C31.8154 25.7554 31.9412 25.7679 32.1225 25.9043ZM32.1225 30.487C32.4953 30.7677 32.6116 30.9964 32.6116 31.4492C32.6116 31.9019 32.4953 32.1307 32.1225 32.4114C31.9428 32.5467 31.8094 32.561 30.5276 32.5821C28.9449 32.6083 28.7105 32.5664 28.3926 32.2017C28.0208 31.7751 28.0087 31.1512 28.364 30.7258C28.6944 30.3302 28.8344 30.3032 30.4565 30.3222C31.8154 30.338 31.9412 30.3505 32.1225 30.487Z"/>
</svg>
