<svg width="41" height="30" viewBox="0 0 41 30" fill="currentColor" xmlns="http://www.w3.org/2000/svg">
<path fill-rule="evenodd" clip-rule="evenodd" d="M15.3717 0.480121C13.4817 0.582334 11.7857 0.792599 11.2054 0.996493C10.2086 1.34685 9.51101 2.04888 8.50552 3.71357C7.92827 4.66923 6.96048 6.6987 6.48596 7.94844C6.28278 8.48384 6.08003 9.0095 6.03561 9.11649C5.95605 9.30826 5.92348 9.31154 3.83393 9.33773C3.83393 9.33773 3.16774 9.33773 2.45977 9.33773C2.06377 9.33773 1.79364 9.34845 1.47649 9.58561C0.922477 9.99988 0.882865 10.5096 1.13977 11.3247C1.39092 12.1213 2.03207 12.6958 2.89384 12.8964C3.03986 12.9305 3.30579 12.9967 3.4849 13.0436L3.81039 13.1289L3.5495 13.7041C3.0357 14.8374 3.01729 15.0468 3.04534 19.437C3.04534 19.437 3.05569 22.2566 3.04534 22.6991C3.035 23.1416 3.30729 23.8832 3.30729 23.8832C3.54959 24.3423 4.1118 24.9175 4.48384 25.0871C4.69136 25.1816 4.69278 25.1923 4.72614 26.9636C4.76304 28.9221 4.80702 29.1143 5.28676 29.4108C5.54587 29.571 5.73172 29.5856 7.50605 29.5852C10.3026 29.5848 10.2832 29.6027 10.2832 27.0221V25.4263H21.0354H31.7876V27.1533V28.8802C31.7876 28.8802 31.7876 29.5682 32.3932 29.5414C32.9988 29.5145 34.3867 29.5682 34.3867 29.5682C36.6061 29.598 36.7739 29.5646 37.1009 29.0282C37.257 28.7721 37.2738 28.5743 37.274 26.9744L37.2744 25.204L37.5531 25.0806C37.9746 24.8941 38.4809 24.6297 38.743 24.0708C38.743 24.0708 38.9723 23.7287 39 23.2582C39.0278 22.7876 39.0278 19.6741 39.0278 19.6741C39.0591 15.6339 39.0122 15.0551 38.5627 13.9357C38.3947 13.5173 38.2676 13.1647 38.2801 13.1522C38.2927 13.1396 38.6272 13.0353 39.0235 12.9206C39.4199 12.8058 39.9046 12.6056 40.1008 12.4758C40.5683 12.1665 40.912 11.4942 40.9696 10.7764C41.0211 10.1346 40.8624 9.7549 40.4338 9.49357C40.1745 9.33543 39.9776 9.32074 38.1093 9.32047L36.0683 9.32012L35.5086 7.88207C35.2008 7.09118 34.6437 5.84667 34.2705 5.11658C32.8942 2.42401 32.0388 1.42056 30.7242 0.956759C30.1994 0.771626 28.5025 0.582245 26.3894 0.472953C24.3958 0.369944 17.3245 0.374458 15.3717 0.480121ZM25.1062 2.288C28.4109 2.37198 29.1529 2.448 29.8064 2.76977C30.4855 3.10401 30.7539 3.41685 31.6423 4.90924C32.792 6.84074 34.0146 9.44056 33.8445 9.5926C33.7087 9.71392 27.5652 10.1531 23.9558 10.2994C21.307 10.4068 18.6786 10.3643 15.1505 10.1568C12.6503 10.0098 8.43711 9.68428 8.26057 9.62454C8.09614 9.56897 8.17172 9.30233 8.6888 8.11437C9.48065 6.29472 11.0046 3.72773 11.6265 3.16587C12.4125 2.4557 12.9552 2.3757 17.8496 2.24747C20.4265 2.17994 20.9764 2.18304 25.1062 2.288ZM8.66782 15.6443C9.78827 15.9182 10.5308 16.2849 11.0834 16.8376C11.8321 17.5861 12.258 18.6934 12.0181 19.2675C11.8138 19.7566 11.513 19.8037 10.0104 19.5814C6.93411 19.1265 6.03915 18.896 5.57933 18.4398C5.13853 18.0024 5.01287 17.5136 5.14136 16.7354C5.27658 15.9169 5.39809 15.6926 5.81242 15.4968C6.27959 15.2761 7.39791 15.3338 8.66782 15.6443ZM36.2124 15.4929C36.6346 15.7037 36.8391 16.1574 36.8916 16.9998C36.9285 17.5926 36.9069 17.7356 36.7282 18.0808C36.4696 18.5801 36.0659 18.8129 35.0395 19.0546C33.8408 19.3368 30.893 19.7673 30.5692 19.7074C30.4092 19.6777 30.1976 19.5497 30.0953 19.4206C29.553 18.7359 30.5176 16.8754 31.7646 16.2011C32.9991 15.5336 35.4976 15.1357 36.2124 15.4929ZM28.4775 16.2961C29.0569 16.9365 27.863 18.6806 26.5287 19.3168C25.6304 19.7452 25.2261 19.7732 20.3682 19.7446C20.3682 19.7446 17.2828 19.7446 16.5306 19.7446C15.7784 19.7446 15.3806 19.4086 15.3806 19.4086C14.1181 18.6493 13.3849 16.8744 13.92 16.2832C14.0595 16.1289 14.1858 16.1343 20.9912 16.1343C20.9912 16.1343 27.9023 16.1343 28.1319 16.1343C28.3615 16.1343 28.4775 16.2961 28.4775 16.2961Z" />
<defs>
   <linearGradient id="grad4" x1="50%" y1="0%" x2="50%" y2="100%">
     <stop offset="0%" style="stop-color:#F53B68;stop-opacity:1" />
     <stop offset="100%" style="stop-color:#BA183F;stop-opacity:1" />
   </linearGradient>
</defs>
</svg>
