<svg width="41" height="31" viewBox="0 0 41 31" fill="currentColor" xmlns="http://www.w3.org/2000/svg">
<path fill-rule="evenodd" clip-rule="evenodd" d="M9.85461 0.849708C8.09977 1.14815 5.95492 2.33838 4.90375 3.59713C4.53016 4.0444 0.711953 9.32916 0.487578 9.7094C0.356719 9.93127 0.0108594 10.8128 0.0108594 10.9246C0.0108594 10.9393 2.72859 10.9514 6.05023 10.9514H12.0896L13.0926 5.97096C13.6442 3.23174 14.112 0.946583 14.1319 0.892833C14.1604 0.816115 13.7272 0.797443 12.1091 0.805802C10.9766 0.811662 9.96203 0.831427 9.85461 0.849708ZM16.5347 0.892053C16.4784 1.05322 14.5421 10.7215 14.5421 10.8414C14.5421 10.935 15.358 10.9514 20.0109 10.9514C25.1681 10.9514 25.4795 10.9436 25.477 10.8147C25.4755 10.7396 25.0263 8.46315 24.4784 5.75611L23.4824 0.83424L20.0258 0.813928C17.3008 0.797834 16.5618 0.814396 16.5347 0.892053ZM25.8898 0.892833C25.9098 0.946583 26.3766 3.23174 26.9273 5.97096L27.9283 10.9514H33.9748H40.0214L39.9671 10.7756C39.7459 10.0592 39.492 9.61166 38.6125 8.38768C34.9614 3.30635 34.8067 3.11393 33.8027 2.40533C32.7788 1.6826 31.58 1.14916 30.4634 0.919162C29.6763 0.757131 25.8311 0.734943 25.8898 0.892833ZM0.0544531 13.4705C0.238125 14.0653 0.458047 14.54 0.745391 14.9624C0.993828 15.3277 2.88852 17.0976 8.6082 22.3075C12.7527 26.0826 16.3994 29.3922 16.7119 29.6621C17.2541 30.1305 18.0825 30.6402 18.1659 30.5568C18.1875 30.5352 16.8614 26.6513 15.2191 21.9259L12.233 13.3342L6.11648 13.3142L0 13.2942L0.0544531 13.4705ZM14.8995 13.8225C15.005 14.1125 16.1937 17.5267 17.5409 21.4096C18.8883 25.2924 20.0113 28.4357 20.0367 28.3947C20.062 28.3537 21.2238 25.0362 22.6183 21.0225C24.0128 17.0088 25.1911 13.6281 25.2366 13.51L25.3195 13.2952H20.0137H14.7078L14.8995 13.8225ZM27.7445 13.471C27.5204 13.9931 21.8232 30.5242 21.856 30.557C21.9211 30.6221 22.7079 30.1778 23.0698 29.8717C24.4961 28.6653 38.9088 15.4606 39.1448 15.144C39.3104 14.9221 39.5065 14.6205 39.5806 14.4739C39.6959 14.246 40.0109 13.4028 40.0109 13.322C40.0109 13.3073 37.2679 13.2952 33.9155 13.2952H27.82L27.7445 13.471Z" />
<defs>
   <linearGradient id="grad3" x1="50%" y1="0%" x2="50%" y2="100%">
     <stop offset="0%" style="stop-color:#71BBFF;stop-opacity:1" />
     <stop offset="100%" style="stop-color:#2A69A4;stop-opacity:1" />
   </linearGradient>
</defs>
</svg>
