<svg width="41" height="40" viewBox="0 0 41 40" fill="currentColor" xmlns="http://www.w3.org/2000/svg">
<path fill-rule="evenodd" clip-rule="evenodd" d="M12.1265 0.0787161C11.3588 0.313091 10.6164 0.962388 9.70891 2.19301C7.1507 5.66215 5.56508 9.69473 5.05484 14.0291C4.90727 15.2832 4.88109 18.0263 5.00664 19.084C5.09969 19.8679 5.22148 20.1494 5.66758 20.6119C6.03352 20.9912 6.64367 21.2557 7.15313 21.2557C8.22258 21.2557 9.39203 20.0163 10.8761 17.3102C12.1392 15.0071 12.371 14.6151 12.5161 14.5375C12.6118 14.4862 15.2378 14.4588 20.0423 14.4588C26.9565 14.4588 27.4319 14.4674 27.5838 14.5955C27.6729 14.6707 28.1556 15.4881 28.6563 16.4119C30.2207 19.298 31.1737 20.5709 32.125 21.045C32.3855 21.1748 32.6757 21.2557 32.8811 21.2557C33.8134 21.2557 34.7767 20.4812 34.9703 19.576C35.0848 19.0407 35.1502 16.7233 35.0855 15.5018C34.9005 12.0134 34.1384 9.11911 32.5581 5.90411C31.1767 3.0934 29.5134 0.8552 28.3788 0.280279C27.3519 -0.240112 26.5148 -0.0426903 24.3748 1.22458C23.1877 1.92762 22.2692 2.3752 21.5015 2.62489C20.951 2.80387 20.697 2.84122 20.0171 2.84294C19.2993 2.84473 19.107 2.81434 18.4778 2.59997C17.645 2.31606 16.8351 1.92083 15.6584 1.22403C13.8084 0.128482 12.9138 -0.161596 12.1265 0.0787161ZM13.1723 3.28356C13.4755 3.39887 13.6109 3.74583 13.6109 4.40809V4.99012L14.3208 5.01747C14.986 5.04301 15.0426 5.05856 15.2192 5.26395C15.4655 5.55036 15.4643 5.89372 15.2159 6.142C15.0406 6.31739 14.9637 6.33379 14.3175 6.33379H13.6109L13.6105 6.97833C13.6102 7.71918 13.457 8.07387 13.0984 8.16387C12.8282 8.23176 12.4866 8.09426 12.372 7.87161C12.3238 7.77778 12.2751 7.40215 12.264 7.03692L12.2437 6.37286L11.543 6.35004C11.0159 6.33286 10.8058 6.29418 10.6942 6.19379C10.4684 5.99051 10.4028 5.74622 10.4995 5.46895C10.6145 5.13895 10.9582 5.00567 11.6943 5.00567H12.2827V4.31747C12.2827 3.61059 12.3335 3.46356 12.6343 3.29903C12.8297 3.19215 12.9248 3.18942 13.1723 3.28356ZM27.1145 4.2584L27.6323 4.76114L28.153 4.2584C28.6914 3.73864 28.9053 3.65684 29.2473 3.83997C29.4766 3.96262 29.6277 4.36661 29.536 4.61168C29.4951 4.72098 29.2625 5.01254 29.0191 5.25965L28.5765 5.70895L29.0673 6.20419C29.4373 6.57754 29.5597 6.75614 29.5647 6.93004C29.5781 7.40465 29.2141 7.72106 28.7675 7.62293C28.6538 7.59793 28.3542 7.36887 28.1018 7.11379L27.6429 6.65004L27.1188 7.15598C26.5673 7.68848 26.4164 7.74317 26.0384 7.54762C25.79 7.41918 25.7202 7.28715 25.7202 6.94567C25.7202 6.76442 25.8298 6.59676 26.2014 6.20981L26.6825 5.70879L26.2014 5.20778C25.7922 4.78168 25.7202 4.66426 25.7202 4.42294C25.7202 4.05551 26.0033 3.75567 26.3502 3.75567C26.5477 3.75567 26.6998 3.85583 27.1145 4.2584ZM18.0284 5.27559C18.3948 5.64184 18.2229 6.25176 17.7177 6.37856C17.6109 6.40528 17.185 6.41497 16.7712 6.40004C16.0918 6.37551 16.0043 6.35497 15.8695 6.1884C15.6423 5.9077 15.67 5.44715 15.9261 5.24575C16.1058 5.10434 16.2403 5.08379 16.9843 5.08379C17.7852 5.08379 17.8483 5.09536 18.0284 5.27559ZM21.6645 5.18395C22.0229 5.45911 22.0548 5.87067 21.7419 6.18356C21.518 6.40739 21.497 6.41192 20.6812 6.41192C19.8654 6.41192 19.8443 6.40739 19.6205 6.18356C19.4948 6.05793 19.3921 5.88043 19.3921 5.78903C19.3921 5.58114 19.5904 5.18926 19.7225 5.13606C19.9366 5.04989 21.5415 5.08942 21.6645 5.18395ZM25.3953 5.20887C25.6665 5.39879 25.7395 5.66778 25.6063 5.98645C25.4597 6.33739 25.2455 6.41192 24.3831 6.41192C23.6534 6.41192 23.2848 6.30215 23.1906 6.05684C23.0863 5.78504 23.1452 5.46426 23.3339 5.27559C23.5138 5.09559 23.5776 5.08379 24.3712 5.08379C25.02 5.08379 25.2583 5.11286 25.3953 5.20887ZM0.965938 6.33926C0.604297 6.48411 0.309063 6.75309 0.165938 7.06825C0.02625 7.37598 0.0204688 7.84934 0.0188281 19.1658L0.0171094 30.9432H20.0171H40.0171V19.171V7.39872L39.8514 7.05645C39.7516 6.85036 39.5596 6.63067 39.369 6.50442L39.0523 6.29473L36.6441 6.272C35.3195 6.2595 34.2359 6.26059 34.2359 6.27434C34.2359 6.28817 34.3579 6.58887 34.5071 6.94262C35.1848 8.54957 35.8188 10.7864 36.1058 12.5838C36.3559 14.1502 36.4257 15.0915 36.4242 16.8804C36.4227 18.6936 36.3453 19.7001 36.1681 20.2134C35.7702 21.3659 34.7502 22.2611 33.5515 22.5099C31.6994 22.8944 30.0494 21.6415 28.2988 18.5213C28.0698 18.1131 27.8345 17.7 27.776 17.6033L27.6698 17.4275H20.0116H12.3536L12.2205 17.6722C10.7959 20.2915 9.68406 21.6515 8.48172 22.2457C6.86219 23.0461 4.87805 22.3102 4.03789 20.5975C3.69352 19.8955 3.6018 19.1111 3.59859 16.8416C3.59617 15.1368 3.66602 14.2365 3.92898 12.5838C4.21438 10.7903 4.84867 8.55129 5.52711 6.94262C5.67633 6.58887 5.79836 6.28965 5.79836 6.27754C5.79836 6.21653 1.12344 6.27622 0.965938 6.33926ZM15.9008 8.70598C16.4549 8.97708 16.9889 9.56536 17.208 10.1461C17.3443 10.5076 17.3696 10.7095 17.342 11.2166C17.2845 12.2718 16.8084 13.0095 15.8944 13.4594C15.4275 13.6893 15.3012 13.7166 14.7063 13.7166C14.1374 13.7166 13.9766 13.6852 13.6011 13.5008C13.0805 13.2451 12.4937 12.6457 12.261 12.132C12.0039 11.5642 12.0192 10.5809 12.2943 9.99411C12.616 9.30786 13.2479 8.75918 14.0015 8.51168C14.1089 8.47645 14.4819 8.45754 14.8302 8.46981C15.332 8.48747 15.5546 8.53661 15.9008 8.70598ZM26.4846 8.7059C27.032 8.98614 27.4869 9.45348 27.7382 9.99411C28.013 10.585 28.0293 11.5696 27.7738 12.132C27.5401 12.6462 26.9533 13.2454 26.4331 13.5008C26.0577 13.6852 25.8968 13.7166 25.328 13.7166C24.733 13.7166 24.6067 13.6893 24.1398 13.4594C23.2259 13.0095 22.7498 12.2718 22.6923 11.2166C22.6504 10.4487 22.8348 9.88676 23.3032 9.35465C23.8986 8.67825 24.4963 8.43145 25.4468 8.46957C25.9394 8.48934 26.1592 8.53942 26.4846 8.7059ZM14.0872 9.93395C13.3112 10.4071 13.1552 11.3145 13.7389 11.9605C14.6046 12.9187 16.1225 12.2612 16.0158 10.9743C15.9366 10.0197 14.8808 9.4502 14.0872 9.93395ZM24.7187 9.9027C23.8462 10.3326 23.7609 11.6823 24.5745 12.1851C25.3461 12.6621 26.2241 12.3686 26.5458 11.5262C26.9636 10.4322 25.7793 9.37997 24.7187 9.9027ZM13.1408 15.9456C13.0592 16.0981 13.1193 16.0994 20.0171 16.0994C26.9149 16.0994 26.975 16.0981 26.8934 15.9456C26.8125 15.7944 26.6954 15.7918 20.0171 15.7918C13.3388 15.7918 13.2217 15.7944 13.1408 15.9456ZM0.0289844 32.845C0.0535156 33.3302 0.0923438 33.4637 0.280938 33.711C0.734453 34.3056 0.71586 34.3019 3.27883 34.3022C4.69086 34.3025 5.56398 34.3313 5.56398 34.3778C5.56398 34.4191 5.08242 35.4205 4.49375 36.603C3.54648 38.5061 3.43219 38.7776 3.49867 38.9668C3.60203 39.2606 3.93063 39.4373 4.19078 39.339C4.33242 39.2855 4.87484 38.5461 6.05156 36.8025L7.71242 34.3416H20.0171H32.3218L33.9827 36.8025C35.1594 38.5461 35.7018 39.2855 35.8434 39.339C36.1036 39.4373 36.4322 39.2606 36.5355 38.9668C36.602 38.7776 36.4877 38.5061 35.5405 36.603C34.9518 35.4205 34.4702 34.4191 34.4702 34.3778C34.4702 34.3313 35.3434 34.3025 36.7554 34.3022C39.3136 34.3019 39.3006 34.3044 39.7466 33.7197C39.9257 33.485 39.9693 33.3359 40.0003 32.8537L40.0377 32.2713H20.0188H0L0.0289844 32.845ZM20.4471 32.8377C20.8111 33.1508 20.6652 33.8443 20.2114 33.9582C19.7506 34.0739 19.3618 33.7505 19.3757 33.2632C19.3845 32.9546 19.6966 32.6619 20.0171 32.6619C20.1413 32.6619 20.3347 32.741 20.4471 32.8377Z"/>
<defs>
   <linearGradient id="grad1" x1="50%" y1="0%" x2="50%" y2="100%">
     <stop offset="0%" style="stop-color:#96C03C;stop-opacity:1" />
     <stop offset="100%" style="stop-color:#4F7500;stop-opacity:1" />
   </linearGradient>
</defs>
</svg>
