<svg width="40" height="40" viewBox="0 0 40 40" fill="currentColor" xmlns="http://www.w3.org/2000/svg">
<path fill-rule="evenodd" clip-rule="evenodd" d="M24.7692 0.38463C23.8797 0.500014 22.8461 1.07694 22.7692 2.55367C22.6922 4.0304 22.7209 7.43828 22.7209 7.43828H23.8797H25.0384V5.24005C25.0384 5.24005 25.0384 3.27593 25.0384 3.04182C25.0384 2.80771 25.1153 2.59213 25.4881 2.59213C25.8609 2.59213 27.7307 2.59213 27.7307 2.59213C27.7307 2.59213 29.5236 2.59213 29.9733 2.59213C30.423 2.59213 30.423 2.88463 30.423 3.04182C30.423 3.19901 30.423 5.24005 30.423 5.24005V7.43828H31.5817H32.7405C32.7405 7.43828 32.7692 3.83809 32.6922 2.55367C32.6153 1.26924 32.1153 0.365666 30.4615 0.322897C28.8076 0.280128 27.8845 0.309051 27.8845 0.309051C26.4672 0.301436 25.6586 0.269247 24.7692 0.38463ZM17.3461 9.90236C16.7307 10.0547 15.8845 10.4191 15.8461 11.7075C15.8076 12.996 15.8461 23.5152 15.8461 23.5152C15.8461 23.5152 15.8076 33.8444 15.8461 35.3229C15.8845 36.8014 16.9835 37.0174 17.7527 37.2439L18.0768 37.3393L18.1153 38.1004C18.1603 38.9903 18.2705 39.2474 18.7144 39.4968C19.0938 39.7101 19.4157 39.7152 19.8096 39.5142C20.2688 39.2799 20.423 38.9136 20.423 38.0567V37.3614H27.7307H35.0384V38.0567C35.0384 38.9005 35.1792 39.2393 35.6371 39.4966C36.0168 39.71 36.3386 39.7152 36.7322 39.5144C37.1747 39.2887 37.3007 38.9985 37.3461 38.1004L37.3845 37.3393L37.7087 37.2439C38.4778 37.0174 39.6153 36.7692 39.6153 35.3229C39.6153 33.8765 39.6355 23.7114 39.6355 23.7114C39.6575 11.052 39.7137 11.4349 39.2692 10.7308C38.9986 10.3022 38.6538 10 37.9122 9.90236C37.1707 9.8047 37.3643 9.74605 27.7085 9.74998C18.0881 9.7539 17.9615 9.74998 17.3461 9.90236ZM10.1922 10.6923C9.60246 10.9434 9.23069 11.386 9.11531 11.7075C8.99992 12.029 8.78862 12.3942 8.74954 13.8037L8.71485 15.0537H9.87662H11.0384V14.0385C11.0384 13.0372 11.0216 12.7169 11.388 12.6399C11.6153 12.5921 12.075 12.5921 12.6153 12.5921H13.4774C13.4774 12.5921 13.4695 12.1594 13.4999 11.8846C13.5655 11.2927 13.7297 10.878 13.9216 10.419C13.9216 10.419 12.9314 10.4263 12.3845 10.419C11.637 10.4092 10.8801 10.3995 10.1922 10.6923ZM22.2001 12.9975C22.7713 13.3791 22.7305 12.5665 22.7305 23.5375C22.7307 33.2377 22.7286 33.3715 22.5758 33.6711C22.4008 34.0142 22.1153 34.2844 21.5712 34.2844C21.027 34.2844 20.7382 33.9853 20.5689 33.6535C20.4279 33.3771 20.423 33.0375 20.4232 23.5375C20.4232 14.3324 20.4318 13.6905 20.5578 13.4398C20.7508 13.0555 21.1352 12.8229 21.5768 12.8229C21.825 12.8229 22.0208 12.8777 22.2001 12.9975ZM34.5078 12.9975C35.079 13.3791 35.0382 12.5665 35.0382 23.5375C35.0384 33.2377 35.0363 33.3715 34.8835 33.6711C34.7085 34.0142 34.2658 34.2844 33.8788 34.2844C33.5211 34.2844 33.0458 33.9853 32.8766 33.6535C32.7356 33.3771 32.7307 33.0375 32.7309 23.5375C32.7309 14.3324 32.7395 13.6905 32.8655 13.4398C33.0585 13.0555 33.4428 12.8229 33.8845 12.8229C34.1327 12.8229 34.3285 12.8777 34.5078 12.9975ZM2.32562 17.4451C1.34608 17.6154 0.307617 18.2692 0.307617 19.3998C0.307617 20.5304 0.307617 27.3614 0.307617 27.3614C0.307617 27.3614 0.307617 34.0689 0.307617 35.3229C0.307617 36.5769 1.44508 37.0174 2.21423 37.2439L2.53839 37.3393L2.57685 38.1004C2.62185 38.9903 2.73208 39.2474 3.17592 39.4968C3.55539 39.7101 3.87723 39.7152 4.27116 39.5142C4.73039 39.2799 4.88454 38.9136 4.88454 38.0567V37.3614H9.57308H14.2615L13.9957 36.8014C13.4849 35.726 13.5028 36.1052 13.5012 26.2652L13.4999 17.3614L8.05762 17.3691C5.06431 17.3734 3.30516 17.2747 2.32562 17.4451ZM6.53839 20.5921C6.74093 20.6902 6.91716 20.8544 7.02423 21.0449L7.19223 21.3438V27.3557C7.19223 33.229 7.18869 33.3745 7.03739 33.6711C6.86231 34.0142 6.76916 34.2844 6.03269 34.2844C5.29623 34.2844 5.19969 33.9853 5.03046 33.6535C4.89085 33.3799 4.88454 33.1067 4.88454 27.3557V21.3438L5.05177 21.0464C5.22931 20.7304 5.70062 20.4384 6.03331 20.4384C6.13631 20.4383 6.36362 20.5075 6.53839 20.5921Z" />
<defs>
   <linearGradient id="grad2" x1="50%" y1="0%" x2="50%" y2="100%">
     <stop offset="0%" style="stop-color:#FE9549;stop-opacity:1" />
     <stop offset="100%" style="stop-color:#DB6900;stop-opacity:1" />
   </linearGradient>
</defs>
</svg>
